:SAMPLES-PER-SECOND 30
:FULLY-SPECIFIED
:DEGREES
578
root  5.67486 35.2245 0.834072 -1.7298 -75.4212 8.26886
RightUpLeg  -21.8643 -11.5878 -29.1871
RightLeg  26.2439 -10.2806 -5.67706
RightFoot  5.21604 -4.3151 29.3066
RightToes  -2.32832e-010 0 -3.6325e-017
Spine  34.6892 0.358901 10.3106
Spine1  -5.81346 3.86313 -3.4294
HEad  -35.9087 -15.7285 -7.84395
LeftShoulder1  0.507428 -0.141767 -6.16887
LeftArm  -7.31142 20.9776 -16.729
LeftForeArm  26.0104 7.66118 -11.0736
LeftHand  0.456479 7.37574 26.3589
RightShoulder  0.61313 0.667665 7.11738
RightArm  -20.8386 -0.161659 -1.52213
RightForeArm  -0.275257 -3.83932 8.36559
RightHand  -0.159535 -4.19837 -14.3014
LeftUpLeg  -31.272 4.98563 20.7374
LeftLeg  33.6814 -2.94619 -1.75767
LeftFoot  -6.97342 1.21817 -30.1951
LeftToes  2.2737e-010 4.38529e-011 2.18788e-011
579
root  5.67528 35.218 0.736871 23.7339 -71.6507 -18.2618
RightUpLeg  -19.5082 -13.9028 -20.6324
RightLeg  24.6786 -10.9125 -5.65029
RightFoot  5.57288 -4.24232 28.2538
RightToes  -2.32832e-010 0 -3.6325e-017
Spine  34.6143 0.81799 11.3946
Spine1  -7.34318 2.6427 12.6796
HEad  -33.7704 -11.3602 -16.6064
LeftShoulder1  0.541114 -0.401441 -6.11716
LeftArm  -8.42291 21.4141 -20.3255
LeftForeArm  27.0844 7.62604 -10.9208
LeftHand  0.302272 6.77343 25.3178
RightShoulder  0.52271 0.0568936 7.11254
RightArm  -20.5937 -0.496274 -5.07509
RightForeArm  -0.637278 -3.46687 8.34399
RightHand  -0.1156 -4.52921 -13.7459
LeftUpLeg  -33.6557 3.98101 29.1859
LeftLeg  35.2672 -4.00999 -2.68236
LeftFoot  -6.98136 1.21393 -30.1443
LeftToes  2.2737e-010 4.38529e-011 2.18788e-011
580
root  5.59267 35.2206 0.535849 36.6136 -67.8048 -31.5203
RightUpLeg  -18.2815 -17.2355 -13.7515
RightLeg  22.4766 -9.59534 -4.55157
RightFoot  5.52366 -4.15307 27.7634
RightToes  -2.32832e-010 0 -3.6325e-017
Spine  34.3802 1.6134 10.4838
Spine1  -8.01091 1.70224 26.2024
HEad  -33.3667 -6.27474 -20.7124
LeftShoulder1  0.517372 -0.327695 -5.71265
LeftArm  -9.06021 21.574 -21.8856
LeftForeArm  27.8728 7.59657 -10.7885
LeftHand  0.295938 6.76079 25.0223
RightShoulder  0.485502 -0.281038 7.55682
RightArm  -22.6432 -1.28706 -6.93889
RightForeArm  -2.3265 -2.11702 7.26473
RightHand  -0.115497 -4.50784 -13.3677
LeftUpLeg  -34.9794 4.56883 35.7348
LeftLeg  35.3756 -5.11063 -3.53411
LeftFoot  -6.58824 1.33773 -30.5983
LeftToes  2.2737e-010 4.38529e-011 2.18788e-011
581
root  5.52167 35.1477 0.224131 45.4307 -67.1754 -39.3781
RightUpLeg  -20.4588 -18.976 -9.36456
RightLeg  22.209 -7.20935 -3.4356
RightFoot  5.00463 -3.99932 27.5877
RightToes  -2.32832e-010 0 -3.6325e-017
Spine  33.5382 2.63871 8.13225
Spine1  -7.27474 1.10233 32.8687
HEad  -34.9651 -1.62476 -20.6319
LeftShoulder1  0.454178 -0.262789 -4.10109
LeftArm  -9.16907 21.1197 -21.0337
LeftForeArm  27.2975 7.58223 -10.6574
LeftHand  0.3453 6.94904 25.5719
RightShoulder  0.487504 -0.501951 8.90452
RightArm  -24.3004 -3.20183 -6.27145
RightForeArm  -3.07547 -0.201239 6.36966
RightHand  -0.132072 -4.37184 -13.5267
LeftUpLeg  -35.2065 6.88061 39.4352
LeftLeg  34.9475 -5.36291 -3.66848
LeftFoot  -6.38941 1.42886 -31.4254
LeftToes  2.2737e-010 4.38529e-011 2.18788e-011
582
root  5.57008 34.9619 -0.0860737 53.1468 -68.299 -45.9405
RightUpLeg  -24.2351 -18.386 -6.95883
RightLeg  24.0308 -5.50845 -2.9054
RightFoot  4.32382 -3.82438 27.5219
RightToes  -2.32832e-010 0 -3.6325e-017
Spine  33.011 3.09397 6.03886
Spine1  -6.28795 0.514226 34.5228
HEad  -37.3733 1.96705 -19.5198
LeftShoulder1  0.414466 -0.373933 -2.5385
LeftArm  -9.08533 20.0436 -18.2434
LeftForeArm  26.0197 7.56887 -10.4885
LeftHand  0.371731 7.03485 26.0168
RightShoulder  0.495522 -0.708004 10.5597
RightArm  -24.4486 -5.91833 -3.77649
RightForeArm  -1.60113 1.93897 6.27945
RightHand  -0.154754 -4.22315 -14.1425
LeftUpLeg  -35.0489 8.86927 41.4321
LeftLeg  35.2734 -4.56273 -3.106
LeftFoot  -6.54534 1.41471 -32.0607
LeftToes  2.2737e-010 4.38529e-011 2.18788e-011
583
root  5.74495 34.7458 -0.317747 55.7037 -70.1058 -48.5552
RightUpLeg  -26.6594 -17.0052 -7.43911
RightLeg  26.8615 -4.73901 -2.83569
RightFoot  3.43905 -3.63582 27.7085
RightToes  -2.32832e-010 0 -3.6325e-017
Spine  33.695 2.14478 4.43903
Spine1  -5.05808 -1.01468 33.1947
HEad  -39.8912 4.28865 -18.3505
LeftShoulder1  0.39844 -0.308095 -2.28118
LeftArm  -8.95851 17.8318 -13.9807
LeftForeArm  24.7659 7.56073 -10.3628
LeftHand  0.4004 7.16515 25.9704
RightShoulder  0.575644 -0.459445 11.871
RightArm  -24.0954 -9.45531 0.409666
RightForeArm  0.590241 4.28129 6.54332
RightHand  -0.18897 -4.04842 -15.3466
LeftUpLeg  -34.553 8.10338 41.5884
LeftLeg  36.2098 -2.86003 -1.88412
LeftFoot  -6.81757 1.35292 -32.4053
LeftToes  2.2737e-010 4.38529e-011 2.18788e-011
584
root  5.99481 34.6223 -0.435781 48.5378 -74.2991 -42.5625
RightUpLeg  -27.5535 -16.0494 -12.4209
RightLeg  29.9814 -3.75279 -2.56718
RightFoot  2.44317 -3.43623 28.0372
RightToes  -2.32832e-010 0 -3.6325e-017
Spine  34.8646 0.139489 2.10886
Spine1  -2.67128 -3.52095 27.5297
HEad  -42.0949 5.02207 -15.6135
LeftShoulder1  0.366734 0.0447203 -2.43414
LeftArm  -9.09247 13.5231 -9.26472
LeftForeArm  23.4086 7.57946 -10.4101
LeftHand  0.411943 7.24309 25.6308
RightShoulder  0.724543 0.211726 12.5383
RightArm  -24.4238 -14.7069 7.33134
RightForeArm  1.41421 6.62428 6.62868
RightHand  -0.240245 -3.82552 -17.0726
LeftUpLeg  -32.9167 4.95419 37.6915
LeftLeg  36.7289 -0.402811 0.0384121
LeftFoot  -6.98995 1.30564 -32.4447
LeftToes  2.2737e-010 4.38529e-011 2.18788e-011
585
root  6.24583 34.5996 -0.453457 15.6951 -80.7231 -10.8149
RightUpLeg  -28.9489 -15.1053 -21.6785
RightLeg  32.6882 -1.73481 -1.43968
RightFoot  1.94683 -3.32189 28.0995
RightToes  -2.32832e-010 0 -3.6325e-017
Spine  35.3395 -1.7294 -1.49428
Spine1  0.0134122 -5.09605 15.5732
HEad  -42.7465 4.00253 -10.5291
LeftShoulder1  0.313641 0.221957 -1.2792
LeftArm  -10.3291 6.87047 -5.0286
LeftForeArm  21.9241 7.60047 -10.4754
LeftHand  0.319289 6.86633 25.0219
RightShoulder  0.777371 0.466595 12.6104
RightArm  -25.268 -22.008 17.0916
RightForeArm  1.45144 8.12757 6.67634
RightHand  -0.313297 -3.47813 -18.5187
LeftUpLeg  -29.5071 3.80365 28.6633
LeftLeg  35.9482 1.65673 1.64782
LeftFoot  -6.84216 1.3225 -31.8638
LeftToes  2.2737e-010 4.38529e-011 2.18788e-011
586
root  6.4182 34.666 -0.428727 -56.4369 -82.2301 60.8284
RightUpLeg  -31.5741 -13.5112 -31.5249
RightLeg  33.5087 0.776294 0.29569
RightFoot  2.56177 -3.43489 27.8039
RightToes  -2.32832e-010 0 -3.6325e-017
Spine  35.4739 -2.91486 -5.00548
Spine1  0.463319 -4.60402 -0.204865
HEad  -41.117 2.25868 -5.06154
LeftShoulder1  0.244789 0.261427 1.04726
LeftArm  -13.2345 -0.959866 -1.3181
LeftForeArm  20.7859 7.57245 -10.2549
LeftHand  0.156184 6.14653 24.2776
RightShoulder  0.697113 0.0778999 12.4907
RightArm  -25.5253 -29.637 27.0428
RightForeArm  2.77405 7.44555 7.0347
RightHand  -0.391024 -3.04418 -18.9852
LeftUpLeg  -24.7049 8.81246 17.93
LeftLeg  33.0589 1.2892 1.2955
LeftFoot  -6.12285 1.47607 -30.8942
LeftToes  2.2737e-010 4.38529e-011 2.18788e-011
